<?xml version="1.0" encoding="UTF-8" standalone="no"?>
<!DOCTYPE svg PUBLIC "-//W3C//DTD SVG 1.1//EN" "http://www.w3.org/Graphics/SVG/1.1/DTD/svg11.dtd">
<svg width="100%" height="100%" viewBox="0 0 228 330" version="1.1" xmlns="http://www.w3.org/2000/svg" xmlns:xlink="http://www.w3.org/1999/xlink" xml:space="preserve" xmlns:serif="http://www.serif.com/" style="fill-rule:evenodd;clip-rule:evenodd;stroke-linejoin:round;stroke-miterlimit:2;">
    <g transform="matrix(1,0,0,1,-186.562,-60.7607)">
        <path d="M390.1,137.3L389.9,137.2L389.4,137C389.5,137.2 389.8,137.3 390.1,137.3Z" style="fill:rgb(1,2,2);fill-rule:nonzero;"/>
    </g>
    <g transform="matrix(1,0,0,1,-186.562,-60.7607)">
        <path d="M393.4,160.9L393.1,161L393.4,160.9Z" style="fill:rgb(1,2,2);fill-rule:nonzero;"/>
    </g>
    <g transform="matrix(1,0,0,1,-186.562,-60.7607)">
        <path d="M390.1,137.2C390,137.2 390.1,137.2 390.1,137.2Z" style="fill:rgb(1,2,2);fill-rule:nonzero;"/>
    </g>
    <g transform="matrix(1,0,0,1,-186.562,-60.7607)">
        <path d="M393.1,160.7L393.5,160.5L393.7,160.3C393.5,160.4 393.3,160.6 393.1,160.7Z" style="fill:rgb(1,2,2);fill-rule:nonzero;"/>
    </g>
    <g transform="matrix(1,0,0,1,-186.562,-60.7607)">
        <path d="M390.7,137.8L390.3,137.4L390,137.3C390.2,137.5 390.4,137.7 390.7,137.8Z" style="fill:rgb(1,2,2);fill-rule:nonzero;"/>
    </g>
    <g transform="matrix(1,0,0,1,-186.562,-60.7607)">
        <path d="M297,366.2C296.7,366.3 296.4,366.5 296.2,366.8L296.4,366.6C296.7,366.4 296.9,366.3 297,366.2Z" style="fill:rgb(1,2,2);fill-rule:nonzero;"/>
    </g>
    <g transform="matrix(1,0,0,1,-186.562,-60.7607)">
        <path d="M351.5,355.4C351.5,355.1 351.3,355.1 351.4,356.3C351.4,356.2 351.4,356.1 351.5,356C351.4,355.9 351.4,355.7 351.5,355.4Z" style="fill:rgb(1,2,2);fill-rule:nonzero;"/>
    </g>
    <g transform="matrix(1,0,0,1,-186.562,-60.7607)">
        <path d="M345.8,366.2C345.5,366.3 345.2,366.5 345,366.8L345.2,366.6C345.5,366.4 345.7,366.3 345.8,366.2Z" style="fill:rgb(1,2,2);fill-rule:nonzero;"/>
    </g>
    <g transform="matrix(1,0,0,1,-186.562,-60.7607)">
        <path d="M258.7,368.7C258.5,368.5 258.2,368.4 257.9,368.3C258.1,368.4 258.4,368.5 258.5,368.6L258.7,368.7Z" style="fill:rgb(1,2,2);fill-rule:nonzero;"/>
    </g>
    <g transform="matrix(1,0,0,1,-186.562,-60.7607)">
        <path d="M250.2,360.5C250.2,360.2 250.1,359.8 249.9,359.5C250,359.8 250.1,360.1 250.2,360.5Z" style="fill:rgb(1,2,2);fill-rule:nonzero;"/>
    </g>
    <g transform="matrix(1,0,0,1,-186.562,-60.7607)">
        <path d="M308,212.8C296.2,217.9 282.7,223.6 265.3,223.6C258,223.6 250.8,222.6 243.8,220.6L255.8,344.2C256.2,349.4 258.6,354.2 262.4,357.7C266.2,361.2 271.2,363.2 276.4,363.2C276.4,363.2 293.5,364.1 299.2,364.1C305.3,364.1 323.7,363.2 323.7,363.2C328.9,363.2 333.9,361.3 337.7,357.7C341.5,354.2 343.9,349.4 344.3,344.2L357.2,207.7C351.4,205.7 345.6,204.4 339.1,204.4C327.7,204.4 318.6,208.3 308,212.8Z" style="fill:rgb(255,221,6);fill-rule:nonzero;"/>
    </g>
    <g transform="matrix(1,0,0,1,-186.562,-60.7607)">
        <path d="M206.5,160.2L206.8,160.5C206.8,160.3 206.7,160.2 206.5,160.2Z" style="fill:rgb(1,2,2);fill-rule:nonzero;"/>
    </g>
    <g transform="matrix(1,0,0,1,-186.562,-60.7607)">
        <path d="M412.8,148.7L411,139.6C409.4,131.4 405.7,123.6 397.3,120.7C394.6,119.8 391.5,119.3 389.5,117.4C387.4,115.4 386.8,112.4 386.3,109.6C385.4,104.4 384.6,99.2 383.7,94C382.9,89.5 382.3,84.5 380.3,80.5C377.6,75 372.1,71.8 366.6,69.7C363.8,68.7 360.9,67.8 358,67C344.3,63.4 329.9,62.1 315.8,61.3C298.9,60.4 281.9,60.6 265,62.1C252.4,63.2 239.2,64.6 227.3,69C222.9,70.6 218.4,72.5 215.1,75.9C211,80 209.7,86.5 212.7,91.6C214.8,95.3 218.4,97.9 222.2,99.6C227.1,101.8 232.3,103.5 237.6,104.6C252.4,107.9 267.6,109.1 282.7,109.7C299.4,110.4 316.1,109.8 332.8,108.1C336.9,107.6 341,107.1 345.1,106.5C349.9,105.8 353,99.4 351.6,95.1C349.9,89.8 345.3,87.8 340.2,88.6C339.4,88.7 338.7,88.8 337.9,88.9L337.4,89C335.6,89.2 333.9,89.4 332.1,89.6C328.5,90 324.9,90.3 321.2,90.6C313.1,91.2 304.9,91.4 296.7,91.4C288.7,91.4 280.7,91.2 272.7,90.6C269,90.4 265.4,90.1 261.8,89.7C260.1,89.5 258.5,89.3 256.9,89.1L255.3,88.9L255,88.9L253.4,88.7C250.1,88.2 246.8,87.6 243.5,86.9C243.2,86.8 242.9,86.6 242.7,86.4C242.5,86.2 242.4,85.8 242.4,85.5C242.4,85.2 242.5,84.8 242.7,84.6C242.9,84.4 243.2,84.2 243.5,84.1L243.6,84.1C246.4,83.5 249.3,83 252.2,82.5C253.2,82.3 254.1,82.2 255.1,82.1C256.9,82 258.7,81.7 260.5,81.4C276.1,79.8 291.8,79.2 307.5,79.7C315.1,79.9 322.7,80.4 330.3,81.1C331.9,81.3 333.6,81.4 335.2,81.6C335.8,81.7 336.4,81.8 337.1,81.8L338.4,82C342.1,82.5 345.7,83.2 349.4,84C354.8,85.2 361.7,85.6 364.1,91.4C364.9,93.3 365.2,95.3 365.6,97.3L366.1,99.8L366.1,99.9C367.4,105.8 368.6,111.7 369.9,117.6C370,118 370,118.5 369.9,118.9C369.8,119.3 369.6,119.8 369.4,120.1C369.1,120.5 368.8,120.8 368.4,121C368,121.2 367.6,121.4 367.2,121.4L365.6,121.6C363.2,121.9 360.7,122.2 358.3,122.5C353.5,123 348.7,123.5 343.9,123.9C334.3,124.7 324.8,125.2 315.2,125.5C310.3,125.6 305.4,125.7 300.5,125.7C281,125.7 261.6,124.6 242.3,122.3C240.2,122.1 238.1,121.8 236,121.5C237.6,121.7 234.8,121.3 234.3,121.3C233,121.1 231.6,120.9 230.3,120.7C225.8,120 221.4,119.2 216.9,118.5C211.5,117.6 206.4,118.1 201.5,120.7C197.5,122.9 194.3,126.2 192.2,130.3C190.1,134.6 189.5,139.4 188.5,144C187.6,148.7 186.1,153.7 186.7,158.5C187.9,168.8 195.1,177.2 205.5,179.1C215.3,180.9 225.1,182.3 235,183.5C273.7,188.2 312.9,188.8 351.7,185.2C354.9,184.9 358,184.6 361.2,184.2C362.2,184.1 363.2,184.2 364.1,184.5C365,184.8 365.9,185.4 366.6,186.1C367.3,186.8 367.8,187.6 368.2,188.6C368.5,189.5 368.7,190.5 368.6,191.5L367.6,201.1C365.6,220.4 363.6,239.7 361.7,259.1C359.6,279.4 357.6,299.7 355.5,320C354.9,325.7 354.3,331.4 353.7,337.1C353.1,342.7 353.1,348.5 352,354.1C350.3,362.8 344.4,368.2 335.8,370.2C327.9,372 319.8,372.9 311.7,373C302.7,373 293.7,372.7 284.7,372.7C275.1,372.8 263.3,371.9 255.9,364.7C249.4,358.4 248.5,348.6 247.6,340.1C246.4,328.9 245.2,317.6 244.1,306.4L237.6,243.9L233.4,203.4C233.3,202.7 233.3,202.1 233.2,201.4C232.7,196.6 229.3,191.9 223.9,192.1C219.3,192.3 214.1,196.2 214.6,201.4L217.7,231.4L224.2,293.4C226,311 227.9,328.6 229.7,346.3C230.1,349.7 230.4,353.1 230.8,356.4C232.8,374.9 246.9,384.8 264.4,387.6C274.6,389.2 285,389.6 295.4,389.7C308.7,389.9 322.1,390.4 335.1,388C354.4,384.5 368.9,371.6 371,351.5C371.6,345.7 372.2,339.9 372.8,334.2C374.8,315.1 376.7,296 378.7,276.8L385.1,214.3L388,185.7C388.1,184.3 388.7,182.9 389.7,181.9C390.7,180.9 391.9,180.1 393.3,179.9C398.8,178.8 404.1,177 408,172.8C413.8,166.2 415,157.5 412.8,148.7ZM205,154.9C205.1,154.9 204.9,155.6 204.9,155.9C204.8,155.4 204.8,154.9 205,154.9ZM205.5,159C205.5,159 205.7,159.1 205.8,159.4C205.6,159.2 205.5,159 205.5,159ZM206,159.7C206.2,160.1 206.3,160.3 206,159.7ZM207.1,160.6C207.1,160.6 207.2,160.6 207.1,160.6L207.1,160.6ZM392.5,159.3C390.5,161.2 387.5,162.1 384.6,162.5C351.5,167.4 317.8,169.9 284.3,168.8C260.3,168 236.6,165.3 212.8,162C210.5,161.7 208,161.2 206.4,159.5C203.4,156.3 204.9,149.8 205.7,145.8C206.4,142.2 207.8,137.4 212.1,136.9C218.7,136.1 226.5,138.9 233,139.9C240.9,141.1 248.9,142.1 256.8,142.8C290.8,145.9 325.5,145.4 359.3,140.9C365.5,140.1 371.6,139.1 377.8,138C383.3,137 389.3,135.2 392.6,140.8C394.9,144.7 395.2,149.8 394.8,154.2C394.8,156.2 393.9,158 392.5,159.3Z" style="fill:rgb(1,2,2);fill-rule:nonzero;"/>
    </g>
</svg>
