<?xml version="1.0" encoding="UTF-8" standalone="no"?><!DOCTYPE svg PUBLIC "-//W3C//DTD SVG 1.1//EN" "http://www.w3.org/Graphics/SVG/1.1/DTD/svg11.dtd"><svg width="100%" height="100%" viewBox="0 0 320 320" version="1.1" xmlns="http://www.w3.org/2000/svg" xmlns:xlink="http://www.w3.org/1999/xlink" xml:space="preserve" style="fill-rule:evenodd;clip-rule:evenodd;stroke-linejoin:round;stroke-miterlimit:1.41421;"><g id="Layer1"><path d="M148.994,181.667c-3.084,8.212 -7.516,15.334 -13.295,21.363c-5.778,6.03 -12.361,10.721 -19.748,14.074c-7.386,3.354 -15.29,5.206 -23.712,5.557c-8.422,0.352 -16.739,-1.015 -24.952,-4.099c-8.213,-3.085 -15.334,-7.516 -21.364,-13.295c-6.03,-5.779 -10.721,-12.361 -14.074,-19.748c-3.353,-7.386 -5.22,-15.251 -5.601,-23.594c-0.381,-8.343 0.97,-16.621 4.055,-24.834c0.474,-1.263 0.919,-2.448 1.334,-3.553c0.415,-1.106 1.018,-2.231 1.809,-3.376c3.518,-6.969 8.176,-13.014 13.974,-18.135c5.798,-5.121 12.232,-9.057 19.302,-11.808c7.071,-2.751 14.466,-4.209 22.187,-4.373c7.721,-0.164 15.372,1.177 22.953,4.024c2.527,0.949 4.94,2.081 7.24,3.395c2.3,1.315 4.496,2.545 6.589,3.691l-14.672,21.793c-1.461,-0.909 -2.833,-1.695 -4.116,-2.357c-1.284,-0.662 -2.715,-1.29 -4.294,-1.883c-4.738,-1.78 -9.541,-2.547 -14.409,-2.303c-4.867,0.245 -9.474,1.353 -13.819,3.326c-4.345,1.972 -8.226,4.75 -11.644,8.332c-3.418,3.582 -6.016,7.742 -7.796,12.481c-1.779,4.738 -2.547,9.541 -2.302,14.408c0.244,4.868 1.353,9.474 3.325,13.819c1.973,4.345 4.71,8.212 8.214,11.6c3.503,3.388 7.624,5.972 12.362,7.751c4.738,1.78 9.58,2.562 14.527,2.347c4.946,-0.215 9.592,-1.308 13.937,-3.281c4.345,-1.972 8.212,-4.71 11.6,-8.213c3.388,-3.504 5.972,-7.624 7.751,-12.363l42.974,-114.426l15.563,33.417l-33.898,90.263Z" style="fill:#3a3a3a;fill-rule:nonzero;"/></g><g id="Layer2"><path d="M171.006,138.333c3.084,-8.212 7.516,-15.334 13.295,-21.363c5.778,-6.03 12.361,-10.721 19.748,-14.074c7.386,-3.354 15.29,-5.206 23.712,-5.557c8.422,-0.352 16.739,1.015 24.952,4.099c8.213,3.085 15.334,7.516 21.364,13.295c6.03,5.779 10.721,12.361 14.074,19.748c3.353,7.386 5.22,15.251 5.601,23.594c0.381,8.343 -0.97,16.621 -4.055,24.834c-0.474,1.263 -0.919,2.448 -1.334,3.553c-0.415,1.106 -1.018,2.231 -1.809,3.376c-3.518,6.969 -8.176,13.014 -13.974,18.135c-5.798,5.121 -12.232,9.057 -19.302,11.808c-7.071,2.751 -14.466,4.209 -22.187,4.373c-7.721,0.164 -15.372,-1.177 -22.953,-4.024c-2.527,-0.949 -4.94,-2.081 -7.24,-3.395c-2.3,-1.315 -4.496,-2.545 -6.589,-3.691l14.672,-21.793c1.461,0.909 2.833,1.695 4.116,2.357c1.284,0.662 2.715,1.29 4.294,1.883c4.738,1.78 9.541,2.547 14.409,2.303c4.867,-0.245 9.474,-1.353 13.819,-3.326c4.345,-1.972 8.226,-4.75 11.644,-8.332c3.418,-3.582 6.016,-7.742 7.796,-12.481c1.779,-4.738 2.547,-9.541 2.302,-14.408c-0.244,-4.868 -1.353,-9.474 -3.325,-13.819c-1.973,-4.345 -4.71,-8.212 -8.214,-11.6c-3.503,-3.388 -7.624,-5.972 -12.362,-7.751c-4.738,-1.78 -9.58,-2.562 -14.527,-2.347c-4.946,0.215 -9.592,1.308 -13.937,3.281c-4.345,1.972 -8.212,4.71 -11.6,8.213c-3.388,3.504 -5.972,7.624 -7.751,12.363l-42.974,114.426l-15.563,-33.417l33.898,-90.263Z" style="fill:#de534c;fill-rule:nonzero;"/></g><g id="Layer3"><circle cx="104.539" cy="161.579" r="18.07" style="fill:#de534c;"/><circle cx="215.461" cy="160.939" r="18.07" style="fill:#31302f;stroke:#3a3a3a;stroke-width:0.64px;"/></g></svg>