<?xml version="1.0" encoding="UTF-8" standalone="no"?>
<!DOCTYPE svg PUBLIC "-//W3C//DTD SVG 1.1//EN" "http://www.w3.org/Graphics/SVG/1.1/DTD/svg11.dtd">
<svg width="100%" height="100%" viewBox="0 0 192 192" version="1.1" xmlns="http://www.w3.org/2000/svg" xmlns:xlink="http://www.w3.org/1999/xlink" xml:space="preserve" xmlns:serif="http://www.serif.com/" style="fill-rule:evenodd;clip-rule:evenodd;stroke-linejoin:round;stroke-miterlimit:2;">
    <path d="M58.639,123.429C26.222,123.429 0,95.767 0,61.714C0,27.661 26.222,0 58.639,0L119.647,0C152.064,0 178.286,27.662 178.286,61.714C178.286,95.766 152.064,123.428 119.647,123.428L58.639,123.428L58.639,123.429Z" style="fill:rgb(134,169,255);fill-rule:nonzero;"/>
    <path d="M98.181,148.368L98.181,186C98.181,189.274 95.544,192 92.383,192C90.836,191.989 89.361,191.349 88.296,190.227L31.107,131.324C19.906,119.873 13.714,104.194 13.714,87.966C13.714,54.561 39.936,27.428 72.353,27.428L133.361,27.428C165.778,27.428 192,54.562 192,87.966C192,121.37 165.778,148.504 133.361,148.504L98.181,148.504L98.181,148.368Z" style="fill:rgb(87,140,255);fill-rule:nonzero;"/>
    <path d="M58.354,123.429L119.509,123.429C152.002,123.429 178.285,95.126 178.285,60.282C178.285,56.157 177.887,52.177 177.229,48.193C166.532,35.394 150.946,27.43 133.642,27.43L72.49,27.43C39.997,27.43 13.714,55.733 13.714,90.577C13.714,94.702 14.112,98.682 14.77,102.522C25.467,115.321 41.053,123.429 58.357,123.429L58.354,123.429Z" style="fill:rgb(0,87,204);fill-rule:nonzero;"/>
</svg>
