<?xml version="1.0" encoding="UTF-8" standalone="no"?>
<!DOCTYPE svg PUBLIC "-//W3C//DTD SVG 1.1//EN" "http://www.w3.org/Graphics/SVG/1.1/DTD/svg11.dtd">
<svg width="100%" height="100%" viewBox="0 0 512 512" version="1.1" xmlns="http://www.w3.org/2000/svg" xmlns:xlink="http://www.w3.org/1999/xlink" xml:space="preserve" xmlns:serif="http://www.serif.com/" style="fill-rule:evenodd;clip-rule:evenodd;stroke-linejoin:round;stroke-miterlimit:2;">
    <g id="Dark-on-Light" serif:id="Dark on Light">
        <g id="_2" serif:id="2" transform="matrix(0.920286,0,0,0.920286,18.1061,20.5448)">
            <path d="M109,507L109,4.7L134.8,5.3C170.3,6.2 190.4,8.7 218,15.5C249.5,23.3 279,36.2 304.5,53.3C314.9,60.2 327,69.7 327,70.9C327,71.4 324.6,72 321.6,72.4C296.5,75.3 261.4,89.4 238.2,105.9C226.6,114.1 210.7,128.9 202,139.5C172.9,175.1 158.1,223.3 161.9,270.1C163.1,285.4 163.8,289.5 167.6,304.3C178,344.9 203.2,381.3 238.2,406.1C261.4,422.6 296.5,436.7 321.6,439.6C324.6,440 327,440.7 327,441.1C327,441.6 323.2,445.1 318.5,448.8C294.2,467.9 260.6,484.8 228,494C196.1,503.2 166.5,507 128.3,507L109,507Z" style="fill:rgb(131,129,129);fill-rule:nonzero;"/>
        </g>
        <g id="_1" serif:id="1" transform="matrix(0.920286,0,0,0.920286,18.1061,20.5448)">
            <path d="M331,417.5C287.9,411.3 253.6,393.8 227.2,364.7C199.8,334.5 186,298.1 186,256C186,213.9 199.8,177.5 227.2,147.3C253.5,118.4 288.7,100.4 330.9,94.6C348.5,92.1 349.1,92.2 354,97.7C369.6,115.4 386.4,145.5 395.3,172C399.1,183 403.6,201.3 405,211C405.6,215.7 406.6,221.7 407.1,224.3C408.3,230.6 408.3,282.9 407.1,288.3C406.6,290.6 405.6,296.3 405,301C403.6,310.7 399.1,328.9 395.3,340C386.4,366.5 369.6,396.6 354,414.3C350,418.8 349.6,419 344.7,418.9C341.8,418.8 335.7,418.2 331,417.5Z" style="fill:rgb(131,129,129);fill-rule:nonzero;"/>
        </g>
    </g>
</svg>
