<?xml version="1.0" standalone="no"?>
<!DOCTYPE svg PUBLIC "-//W3C//DTD SVG 20010904//EN"
 "http://www.w3.org/TR/2001/REC-SVG-20010904/DTD/svg10.dtd">
<svg version="1.0" xmlns="http://www.w3.org/2000/svg"
 width="512.000000pt" height="512.000000pt" viewBox="0 0 512.000000 512.000000"
 preserveAspectRatio="xMidYMid meet">
<metadata>
Created by potrace 1.11, written by Peter Selinger 2001-2013
</metadata>
<g transform="translate(0.000000,512.000000) scale(0.100000,-0.100000)"
fill="#000000" stroke="none">
<path d="M1185 2560 l0 -2313 255 6 c140 4 273 9 295 12 22 3 75 10 117 16 42
5 85 11 95 13 10 2 38 7 63 11 139 22 393 97 560 167 199 82 462 239 575 341
56 52 63 44 -65 67 -87 16 -83 15 -176 43 -376 115 -681 325 -903 622 -99 132
-217 350 -236 435 -2 8 -10 35 -19 60 -21 62 -53 203 -61 265 -3 28 -8 66 -10
85 -6 44 -6 282 -1 335 27 257 112 511 243 729 111 184 301 380 498 513 171
115 468 238 650 269 137 23 137 22 83 66 -279 227 -640 396 -1041 487 -223 51
-374 67 -722 77 l-200 6 0 -2312z"/>
<path d="M3250 4048 c-420 -65 -720 -215 -968 -483 -254 -275 -380 -595 -386
-983 -2 -101 0 -139 18 -277 41 -332 259 -698 546 -920 233 -180 544 -296 854
-321 l82 -6 48 53 c110 122 272 400 343 587 58 155 113 373 136 547 14 97 15
536 2 620 -4 28 -9 59 -10 70 -34 250 -173 633 -301 833 -83 130 -125 190
-167 236 -41 47 -47 50 -93 51 -27 1 -74 -3 -104 -7z"/>
</g>
</svg>
